<svg xmlns="http://www.w3.org/2000/svg" width="42.531" height="34.235" viewBox="0 0 42.531 34.235">
  <g id="Message" transform="translate(0 -101.882)">
    <g id="Group_6" data-name="Group 6" transform="translate(0 101.882)">
      <g id="Group_5" data-name="Group 5">
        <path id="Path_3" data-name="Path 3" d="M39.024,101.882H3.507c-1.934,0-3.507,2.1-3.507,4.689v19c0,2.586,1.573,4.689,3.507,4.689H16.018L19.79,135.3a1.741,1.741,0,0,0,2.951,0l3.772-5.044h12.51c1.934,0,3.507-2.1,3.507-4.689v-19C42.531,103.986,40.957,101.882,39.024,101.882ZM41.2,125.566c0,1.6-.976,2.909-2.175,2.909H26.237a.6.6,0,0,0-.484.28L21.8,134.041a.63.63,0,0,1-1.067,0l-3.95-5.281a.6.6,0,0,0-.488-.284H3.507c-1.2,0-2.175-1.3-2.175-2.909V106.571c0-1.6.976-2.909,2.175-2.909H39.023c1.2,0,2.175,1.3,2.175,2.909v19Z" transform="translate(0 -101.882)"/>
      </g>
    </g>
  </g>
</svg>
