<svg xmlns="http://www.w3.org/2000/svg" width="36.091" height="34.422" viewBox="0 0 36.091 34.422">
  <path id="Path_1" data-name="Path 1" d="M36.042,13.909a1.006,1.006,0,0,0-.85-.688L23.643,12.049,18.96,1.43a1,1,0,0,0-1.83,0L12.446,12.05.9,13.221a1,1,0,0,0-.565,1.743L8.986,22.7,6.533,34.045a1,1,0,0,0,.978,1.211.989.989,0,0,0,.5-.137l10.032-5.84,10.03,5.84a1,1,0,0,0,1.482-1.079L27.1,22.7l8.653-7.737A.992.992,0,0,0,36.042,13.909ZM25.336,21.6a1,1,0,0,0-.311.957l2.1,9.695-8.574-4.99a1,1,0,0,0-1.006,0L8.966,32.25l2.1-9.695a1,1,0,0,0-.311-.957l-7.4-6.613,9.87-1a1,1,0,0,0,.814-.592l4-9.077,4,9.077a1,1,0,0,0,.814.592l9.87,1Z" transform="translate(0 -0.834)"/>
</svg>
