<svg id="Token_Icon" data-name="Token Icon" xmlns="http://www.w3.org/2000/svg" width="36" height="34" viewBox="0 0 36 34">
  <g id="Ellipse_4" data-name="Ellipse 4" fill="#ad871f" stroke="#f90" stroke-width="3">
    <ellipse cx="18" cy="17" rx="18" ry="17" stroke="none"/>
    <ellipse cx="18" cy="17" rx="16.5" ry="15.5" fill="none"/>
  </g>
  <g id="dollar-sign-svgrepo-com" transform="translate(-25.174 8.455)">
    <path id="Path_2" data-name="Path 2" d="M43.168,17.062a.938.938,0,0,0,.894-.977v-.976c2.441-.259,4.057-1.754,4.057-4.186v-.04c0-2.472-1.375-3.608-4.108-4.345V4.226a6.523,6.523,0,0,1,1.2.474,1.318,1.318,0,0,0,1.809-.615,1.622,1.622,0,0,0-.542-2.148A7.027,7.027,0,0,0,44.1,1.2V.6c0-.33-.4-.6-.894-.6s-.894.255-.894.567v.568c-2.631.22-4.109,1.854-4.109,4.206v.04c0,2.471,1.41,3.568,4.177,4.305v2.392a6.035,6.035,0,0,1-1.976-.772,1.4,1.4,0,0,0-2,.463,1.615,1.615,0,0,0,.456,2.175,9.129,9.129,0,0,0,3.412,1.124v1A.95.95,0,0,0,43.168,17.062Zm.825-7.056c.894.3,1.152.6,1.152,1.136v.04c0,.578-.361.916-1.152,1.017ZM41.225,5.082v-.04c0-.518.327-.917,1.169-1V6.2C41.466,5.9,41.225,5.6,41.225,5.082Z" transform="translate(0)" fill="#c6b68f"/>
  </g>
</svg>
